<svg version="1.1" id="Layer_1" xmlns="http://www.w3.org/2000/svg" xmlns:xlink="http://www.w3.org/1999/xlink" x="0px" y="0px" style="enable-background:new 0 0 945.89 293.14;" xml:space="preserve" viewBox="83.62 64.12 773.52 176.77"><path d="M612.71,91.39l51.12,106.74H647.2l-11.44-24.34h-48.13l-11.83,24.34h-16.63L612.71,91.39z M628.94,159.28l-16.84-35.84  l-17.42,35.84H628.94z M829.05,173.79h-48.13l-11.83,24.34h-16.63l53.54-106.74l51.12,106.74h-16.63L829.05,173.79z M822.23,159.28  l-16.84-35.84l-17.42,35.84H822.23z M753.65,147.79c0,16.78-6.96,31.3-20.26,40.67c-11.79,8.32-22.83,9.68-36.89,9.68h-24.21V97.29  h24.51c14.06,0,26.31,1.51,37.5,9.83C746.54,116.34,753.65,131,753.65,147.79z M737.74,147.79c0-35.19-31.17-35.98-38.57-35.98  h-11.46v71.82h11.46C706.72,183.62,737.74,182.98,737.74,147.79z M485.04,147.34c0-21.4,16.81-38.17,38.89-38.17  c10.93,0,22.02,4.08,29.55,10.55v-16.61c-8.56-5.14-17.77-8.16-29.55-8.16c-27.5,0-55.38,20.78-55.38,52.39s27.88,52.39,55.38,52.39  c11.31,0,20.98-3.02,29.55-8.16v-16.61c-7.52,6.47-18.62,10.55-29.55,10.55C501.85,185.51,485.04,168.74,485.04,147.34z   M457.47,126.92c0-4.39-0.91-16.33-11.94-23.74c-6.5-4.38-14.36-5.89-26.61-5.89h-29.15v100.85h15.42V111.5h16.44  c7.56,0,21.02,1.36,21.02,15.57c0,16.99-18.22,16.48-27.04,16.48h-5.85l38.19,54.58h18.6l-31.45-43.09  C448.55,152.02,457.47,141.44,457.47,126.92z M330.19,91.39l51.12,106.74h-16.63l-11.44-24.34h-48.13l-11.83,24.34h-16.63  L330.19,91.39z M346.43,159.28l-16.84-35.84l-17.42,35.84H346.43z M176.25,64.17l11.53,26.79c0,0-20.32-17.77-49-26.79l18.24,35.08  c0,0-28.01-27.46-73.4-35.09c0,0,24.73,12.1,41.22,40.66c16.49,28.56,14.52,55.83,14.52,55.83l17.44-23.38c0,0-5.23,26.49,1.3,55.83  l21.26-33.34c0,0-9.77,37.99,6.31,81.12c0,0-1.89-27.46,14.6-56.02c16.49-28.56,41.1-40.49,41.1-40.49l-28.97-3.41  c0,0,25.55-8.71,47.7-29.04l-39.5-1.74c0,0,37.78-10.53,67.09-46.03c0,0-22.84,15.36-55.82,15.36  C198.88,79.52,176.25,64.17,176.25,64.17z"></path></svg>